<?xml version="1.0" encoding="UTF-8" standalone="no"?>
<!DOCTYPE svg PUBLIC "-//W3C//DTD SVG 1.1//EN"
 "http://www.w3.org/Graphics/SVG/1.1/DTD/svg11.dtd">
<!-- Generated by graphviz version 2.40.1 (20161225.0304)
 -->
<!-- Title: state transitions Pages: 1 -->
<svg width="407pt" height="610pt"
 viewBox="0.00 0.00 407.17 610.00" xmlns="http://www.w3.org/2000/svg" xmlns:xlink="http://www.w3.org/1999/xlink">
<g id="graph0" class="graph" transform="scale(1 1) rotate(0) translate(4 606)">
<title>state transitions</title>
<polygon fill="#ffffff" stroke="transparent" points="-4,4 -4,-606 403.172,-606 403.172,4 -4,4"/>
<g id="clust1" class="cluster state regular">
<title>cluster_state</title>
<path fill="none" stroke="#000000" stroke-width="2" d="M20,-8C20,-8 324,-8 324,-8 330,-8 336,-14 336,-20 336,-20 336,-582 336,-582 336,-588 330,-594 324,-594 324,-594 20,-594 20,-594 14,-594 8,-588 8,-582 8,-582 8,-20 8,-20 8,-14 14,-8 20,-8"/>
<text text-anchor="start" x="158.9944" y="-575.2" font-family="Helvetica,sans-Serif" font-size="12.00" fill="#000000">state</text>
</g>
<!-- state -->
<!-- S_IDLE -->
<g id="node2" class="node state regular">
<title>S_IDLE</title>
<polygon fill="#ffffff" fill-opacity="0.003922" stroke="transparent" stroke-width="2" points="148.5,-556 85.5,-556 85.5,-520 148.5,-520 148.5,-556"/>
<text text-anchor="start" x="96.8276" y="-534.2" font-family="Helvetica,sans-Serif" font-size="12.00" fill="#000000">S_IDLE</text>
<path fill="none" stroke="#000000" stroke-width="2" d="M97.8333,-521C97.8333,-521 136.1667,-521 136.1667,-521 141.8333,-521 147.5,-526.6667 147.5,-532.3333 147.5,-532.3333 147.5,-543.6667 147.5,-543.6667 147.5,-549.3333 141.8333,-555 136.1667,-555 136.1667,-555 97.8333,-555 97.8333,-555 92.1667,-555 86.5,-549.3333 86.5,-543.6667 86.5,-543.6667 86.5,-532.3333 86.5,-532.3333 86.5,-526.6667 92.1667,-521 97.8333,-521"/>
</g>
<!-- S_FILL -->
<g id="node3" class="node state regular">
<title>S_FILL</title>
<polygon fill="#ffffff" fill-opacity="0.003922" stroke="transparent" stroke-width="2" points="95,-474 35,-474 35,-438 95,-438 95,-474"/>
<text text-anchor="start" x="45.6596" y="-452.2" font-family="Helvetica,sans-Serif" font-size="12.00" fill="#000000">S_FILL</text>
<path fill="none" stroke="#000000" stroke-width="2" d="M47.3333,-439C47.3333,-439 82.6667,-439 82.6667,-439 88.3333,-439 94,-444.6667 94,-450.3333 94,-450.3333 94,-461.6667 94,-461.6667 94,-467.3333 88.3333,-473 82.6667,-473 82.6667,-473 47.3333,-473 47.3333,-473 41.6667,-473 36,-467.3333 36,-461.6667 36,-461.6667 36,-450.3333 36,-450.3333 36,-444.6667 41.6667,-439 47.3333,-439"/>
</g>
<!-- S_IDLE&#45;&gt;S_FILL -->
<g id="edge1" class="edge transition">
<title>S_IDLE&#45;&gt;S_FILL</title>
<path fill="none" stroke="#000000" d="M95.8455,-519.6896C90.8905,-514.6507 85.9634,-508.9289 82.191,-503 78.518,-497.2273 75.4781,-490.5586 73.0292,-484.0915"/>
<polygon fill="#000000" stroke="#000000" points="76.2113,-482.5801 69.6615,-474.2524 69.5885,-484.847 76.2113,-482.5801"/>
<text text-anchor="start" x="82" y="-494" font-family="Helvetica,sans-Serif" font-size="10.00" fill="#000000">st_key_detection = &#39;1&#39; and door_closed = &#39;1&#39; &#160;&#160;</text>
</g>
<!-- S_WASH -->
<g id="node4" class="node state regular">
<title>S_WASH</title>
<polygon fill="#ffffff" fill-opacity="0.003922" stroke="transparent" stroke-width="2" points="184,-392 112,-392 112,-356 184,-356 184,-392"/>
<text text-anchor="start" x="122.6656" y="-370.2" font-family="Helvetica,sans-Serif" font-size="12.00" fill="#000000">S_WASH</text>
<path fill="none" stroke="#000000" stroke-width="2" d="M124.3333,-357C124.3333,-357 171.6667,-357 171.6667,-357 177.3333,-357 183,-362.6667 183,-368.3333 183,-368.3333 183,-379.6667 183,-379.6667 183,-385.3333 177.3333,-391 171.6667,-391 171.6667,-391 124.3333,-391 124.3333,-391 118.6667,-391 113,-385.3333 113,-379.6667 113,-379.6667 113,-368.3333 113,-368.3333 113,-362.6667 118.6667,-357 124.3333,-357"/>
</g>
<!-- S_FILL&#45;&gt;S_WASH -->
<g id="edge2" class="edge transition">
<title>S_FILL&#45;&gt;S_WASH</title>
<path fill="none" stroke="#000000" d="M83.4204,-437.8015C94.9183,-426.4422 109.8819,-411.6588 122.5098,-399.1831"/>
<polygon fill="#000000" stroke="#000000" points="124.9771,-401.6655 129.6311,-392.1476 120.0574,-396.6859 124.9771,-401.6655"/>
<text text-anchor="start" x="112" y="-412" font-family="Helvetica,sans-Serif" font-size="10.00" fill="#000000">water_full = &#39;1&#39; &#160;&#160;</text>
</g>
<!-- S_ERROR -->
<g id="node9" class="node state regular">
<title>S_ERROR</title>
<polygon fill="#ffffff" fill-opacity="0.003922" stroke="transparent" stroke-width="2" points="98.5,-216 19.5,-216 19.5,-180 98.5,-180 98.5,-216"/>
<text text-anchor="start" x="30.5002" y="-194.2" font-family="Helvetica,sans-Serif" font-size="12.00" fill="#000000">S_ERROR</text>
<path fill="none" stroke="#000000" stroke-width="2" d="M31.8333,-181C31.8333,-181 86.1667,-181 86.1667,-181 91.8333,-181 97.5,-186.6667 97.5,-192.3333 97.5,-192.3333 97.5,-203.6667 97.5,-203.6667 97.5,-209.3333 91.8333,-215 86.1667,-215 86.1667,-215 31.8333,-215 31.8333,-215 26.1667,-215 20.5,-209.3333 20.5,-203.6667 20.5,-203.6667 20.5,-192.3333 20.5,-192.3333 20.5,-186.6667 26.1667,-181 31.8333,-181"/>
</g>
<!-- S_FILL&#45;&gt;S_ERROR -->
<g id="edge3" class="edge transition">
<title>S_FILL&#45;&gt;S_ERROR</title>
<path fill="none" stroke="#000000" d="M46.8408,-437.9698C41.9567,-431.3184 38,-423.3524 38,-415 38,-415 38,-415 38,-347.5 38,-305.0158 46.4192,-256.3949 52.5959,-226.4412"/>
<polygon fill="#000000" stroke="#000000" points="56.0966,-226.8051 54.7503,-216.2961 49.2493,-225.3509 56.0966,-226.8051"/>
<text text-anchor="start" x="38" y="-330" font-family="Helvetica,sans-Serif" font-size="10.00" fill="#000000">timer = T_FILL &#45; 1 &#160;&#160;</text>
</g>
<!-- S_DRAIN -->
<g id="node5" class="node state regular">
<title>S_DRAIN</title>
<polygon fill="#ffffff" fill-opacity="0.003922" stroke="transparent" stroke-width="2" points="199.5,-310 126.5,-310 126.5,-274 199.5,-274 199.5,-310"/>
<text text-anchor="start" x="137.5002" y="-288.2" font-family="Helvetica,sans-Serif" font-size="12.00" fill="#000000">S_DRAIN</text>
<path fill="none" stroke="#000000" stroke-width="2" d="M138.8333,-275C138.8333,-275 187.1667,-275 187.1667,-275 192.8333,-275 198.5,-280.6667 198.5,-286.3333 198.5,-286.3333 198.5,-297.6667 198.5,-297.6667 198.5,-303.3333 192.8333,-309 187.1667,-309 187.1667,-309 138.8333,-309 138.8333,-309 133.1667,-309 127.5,-303.3333 127.5,-297.6667 127.5,-297.6667 127.5,-286.3333 127.5,-286.3333 127.5,-280.6667 133.1667,-275 138.8333,-275"/>
</g>
<!-- S_WASH&#45;&gt;S_DRAIN -->
<g id="edge4" class="edge transition">
<title>S_WASH&#45;&gt;S_DRAIN</title>
<path fill="none" stroke="#000000" d="M151.329,-355.8015C153.2516,-345.2915 155.7103,-331.8503 157.8748,-320.0177"/>
<polygon fill="#000000" stroke="#000000" points="161.3237,-320.6142 159.6803,-310.1476 154.438,-319.3545 161.3237,-320.6142"/>
<text text-anchor="start" x="156" y="-330" font-family="Helvetica,sans-Serif" font-size="10.00" fill="#000000">timer = T_WASH &#45; 1 &#160;&#160;</text>
</g>
<!-- S_RINSE -->
<g id="node6" class="node state regular">
<title>S_RINSE</title>
<polygon fill="#ffffff" fill-opacity="0.003922" stroke="transparent" stroke-width="2" points="241.5,-216 168.5,-216 168.5,-180 241.5,-180 241.5,-216"/>
<text text-anchor="start" x="179.8302" y="-194.2" font-family="Helvetica,sans-Serif" font-size="12.00" fill="#000000">S_RINSE</text>
<path fill="none" stroke="#000000" stroke-width="2" d="M180.8333,-181C180.8333,-181 229.1667,-181 229.1667,-181 234.8333,-181 240.5,-186.6667 240.5,-192.3333 240.5,-192.3333 240.5,-203.6667 240.5,-203.6667 240.5,-209.3333 234.8333,-215 229.1667,-215 229.1667,-215 180.8333,-215 180.8333,-215 175.1667,-215 169.5,-209.3333 169.5,-203.6667 169.5,-203.6667 169.5,-192.3333 169.5,-192.3333 169.5,-186.6667 175.1667,-181 180.8333,-181"/>
</g>
<!-- S_DRAIN&#45;&gt;S_RINSE -->
<g id="edge6" class="edge transition">
<title>S_DRAIN&#45;&gt;S_RINSE</title>
<path fill="none" stroke="#000000" d="M171.098,-273.8759C177.257,-260.0915 185.8333,-240.8968 192.8188,-225.2627"/>
<polygon fill="#000000" stroke="#000000" points="196.0429,-226.6264 196.9268,-216.0685 189.6518,-223.7708 196.0429,-226.6264"/>
<text text-anchor="start" x="189" y="-248" font-family="Helvetica,sans-Serif" font-size="10.00" fill="#000000">timer = T_DRAIN &#45; 1 &#160;&#160;</text>
<text text-anchor="start" x="189" y="-236" font-family="Helvetica,sans-Serif" font-size="10.00" fill="#000000">not (water_full = &#39;1&#39;) &#160;&#160;</text>
</g>
<!-- S_DRAIN&#45;&gt;S_ERROR -->
<g id="edge5" class="edge transition">
<title>S_DRAIN&#45;&gt;S_ERROR</title>
<path fill="none" stroke="#000000" d="M126.299,-285.7914C108.1128,-280.896 87.2335,-272.2331 73.832,-257 66.4545,-248.6143 62.6412,-237.0888 60.7063,-226.4486"/>
<polygon fill="#000000" stroke="#000000" points="64.1368,-225.6967 59.3351,-216.2524 57.1992,-226.6297 64.1368,-225.6967"/>
<text text-anchor="start" x="73" y="-248" font-family="Helvetica,sans-Serif" font-size="10.00" fill="#000000">water_full = &#39;1&#39; &#160;&#160;</text>
<text text-anchor="start" x="73" y="-236" font-family="Helvetica,sans-Serif" font-size="10.00" fill="#000000">timer = T_DRAIN &#45; 1 &#160;&#160;</text>
</g>
<!-- S_SPIN -->
<g id="node7" class="node state regular">
<title>S_SPIN</title>
<polygon fill="#ffffff" fill-opacity="0.003922" stroke="transparent" stroke-width="2" points="239,-134 175,-134 175,-98 239,-98 239,-134"/>
<text text-anchor="start" x="185.6616" y="-112.2" font-family="Helvetica,sans-Serif" font-size="12.00" fill="#000000">S_SPIN</text>
<path fill="none" stroke="#000000" stroke-width="2" d="M187.3333,-99C187.3333,-99 226.6667,-99 226.6667,-99 232.3333,-99 238,-104.6667 238,-110.3333 238,-110.3333 238,-121.6667 238,-121.6667 238,-127.3333 232.3333,-133 226.6667,-133 226.6667,-133 187.3333,-133 187.3333,-133 181.6667,-133 176,-127.3333 176,-121.6667 176,-121.6667 176,-110.3333 176,-110.3333 176,-104.6667 181.6667,-99 187.3333,-99"/>
</g>
<!-- S_RINSE&#45;&gt;S_SPIN -->
<g id="edge7" class="edge transition">
<title>S_RINSE&#45;&gt;S_SPIN</title>
<path fill="none" stroke="#000000" d="M205.4439,-179.8015C205.6976,-169.3976 206.0214,-156.1215 206.3079,-144.3768"/>
<polygon fill="#000000" stroke="#000000" points="209.8124,-144.23 206.5574,-134.1476 202.8145,-144.0592 209.8124,-144.23"/>
<text text-anchor="start" x="206" y="-154" font-family="Helvetica,sans-Serif" font-size="10.00" fill="#000000">timer = T_RINSE &#45; 1 &#160;&#160;</text>
</g>
<!-- S_DONE -->
<g id="node8" class="node state regular">
<title>S_DONE</title>
<polygon fill="#ffffff" fill-opacity="0.003922" stroke="transparent" stroke-width="2" points="286.5,-52 215.5,-52 215.5,-16 286.5,-16 286.5,-52"/>
<text text-anchor="start" x="226.8316" y="-30.2" font-family="Helvetica,sans-Serif" font-size="12.00" fill="#000000">S_DONE</text>
<path fill="none" stroke="#000000" stroke-width="2" d="M227.8333,-17C227.8333,-17 274.1667,-17 274.1667,-17 279.8333,-17 285.5,-22.6667 285.5,-28.3333 285.5,-28.3333 285.5,-39.6667 285.5,-39.6667 285.5,-45.3333 279.8333,-51 274.1667,-51 274.1667,-51 227.8333,-51 227.8333,-51 222.1667,-51 216.5,-45.3333 216.5,-39.6667 216.5,-39.6667 216.5,-28.3333 216.5,-28.3333 216.5,-22.6667 222.1667,-17 227.8333,-17"/>
</g>
<!-- S_SPIN&#45;&gt;S_DONE -->
<g id="edge8" class="edge transition">
<title>S_SPIN&#45;&gt;S_DONE</title>
<path fill="none" stroke="#000000" d="M215.1691,-97.9321C219.2921,-89.1026 224.493,-78.3837 229.601,-69 231.0056,-66.4197 232.5132,-63.7621 234.054,-61.1193"/>
<polygon fill="#000000" stroke="#000000" points="237.1859,-62.7018 239.3198,-52.324 231.18,-59.106 237.1859,-62.7018"/>
<text text-anchor="start" x="229" y="-72" font-family="Helvetica,sans-Serif" font-size="10.00" fill="#000000">timer = T_SPIN &#45; 1 &#160;&#160;</text>
</g>
<!-- S_DONE&#45;&gt;S_IDLE -->
<g id="edge9" class="edge transition">
<title>S_DONE&#45;&gt;S_IDLE</title>
<path fill="none" stroke="#000000" d="M286.7746,-39.4904C306.4866,-44.7731 327,-55.0606 327,-75 327,-224.5 327,-224.5 327,-224.5 327,-281.46 291,-290.54 291,-347.5 291,-497 291,-497 291,-497 291,-510.5377 210.1727,-524.6674 158.6955,-532.2935"/>
<polygon fill="#000000" stroke="#000000" points="157.9023,-528.872 148.5101,-533.7748 158.9097,-535.7991 157.9023,-528.872"/>
<text text-anchor="start" x="315" y="-289" font-family="Helvetica,sans-Serif" font-size="10.00" fill="#000000">door_closed = &#39;0&#39; &#160;&#160;</text>
</g>
</g>
</svg>
